<svg width="16" height="16" xmlns="http://www.w3.org/2000/svg"><defs><clipPath id="a"><path d="M-24.176 30.085a3 3 0 0 1 3 3v9a2 2 0 0 1-2 2h.09a2 2 0 0 0 2-2v-9a3 3 0 0 0-3-3zm.342 2.063l-.815.726a.69.689 0 0 1 .254.533v.678h1.22v-1a1 1 0 0 0-.66-.938zm-.49 2.937v.242h.002v4.988a.847.831 0 0 1-.846.83h-8.467a.847.831 0 0 1-.205-.023l-.848.762a1 1 0 0 1-.03-.026l-.044.038a1 1 0 0 0 .586.189h10a1 1 0 0 0 1-1v-6z" fill="#4d4d4d"/></clipPath></defs><path clip-path="url(#a)" fill="#fca" d="M-35.458 30.847h12.678v11.864h-12.678z"/><path d="M-19.29 38.712l13.42-12.068.075 12z" fill="maroon"/><path d="M63.399 49.104a3 3 0 0 1 3 3v9a2 2 0 0 1-2 2h.09a2 2 0 0 0 2-2v-9a3 3 0 0 0-3-3zm.342 2.063l-2.172 1.937h2.83v-1a1 1 0 0 0-.658-.938zm-3.293 2.937l-7.56 6.799a1 1 0 0 1-.032-.026l-.043.038a1 1 0 0 0 .586.189h10a1 1 0 0 0 1-1v-6z"/><g fill="#666"><path d="M12.322 40.186h-10a3 3 0 0 0-3 3v8a3 3 0 0 0 3 3h11a2 2 0 0 0 2-2v-9a3 3 0 0 0-3-3zm1 11a1 1 0 0 1-1 1h-10a1 1 0 0 1-1-1v-6h12zm0-7h-12v-1a1 1 0 0 1 1-1h10a1 1 0 0 1 1 1z"/><path d="M.685 52.915l13.421-12.068.074 12.001z"/></g><path d="M31.536 25.329h16.983v14.949H31.536z"/><g fill="#b3b3b3"><path d="M44.909 25.448h-10a3 3 0 0 0-3 3v8a3 3 0 0 0 3 3h11a2 2 0 0 0 2-2v-9a3 3 0 0 0-3-3zm1 11a1 1 0 0 1-1 1h-10a1 1 0 0 1-1-1v-6h12zm0-7h-12v-1a1 1 0 0 1 1-1h10a1 1 0 0 1 1 1z"/><path d="M33.272 38.177l13.421-12.068.074 12.001z"/></g><path d="M3.04 1a3 3 0 0 0-3 3v8a3 3 0 0 0 3 3h11a2 2 0 0 0 1.872-1.305 2 2 0 0 1-1.861 1.272h-.09a2 2 0 0 0 2-2v-9a3 3 0 0 0-1.807-2.752 3 3 0 0 0-.025-.012 3 3 0 0 0-.002 0A3 3 0 0 0 13.039 1zm0 2h10a1 1 0 0 1 .257.035l.006-.006a1 1 0 0 1 .658.938v1h-1.219v-.678a.69.689 0 0 0-.25-.53L11.112 5H2.038V4a1 1 0 0 1 1-1zm9.773 2.967h1.148v6a1 1 0 0 1-1 1h-10a1 1 0 0 1-.586-.19l.018-.015A1 1 0 0 1 2.039 12V6h7.959l-6.682 6.008a.847.831 0 0 0 .186.02h8.467a.847.831 0 0 0 .845-.83V6.208h-.002z" fill="#0c0c0d" fill-opacity=".8"/><path d="M.685 52.915l13.421-12.068.074 12.001z" fill="maroon"/><g fill="#666"><path d="M14.106 40.847h7.661v12.271h-7.661z"/><path d="M.712 52.576h21.017v5.288H.712zM33 41.475a3 3 0 0 0-3 3v8a3 3 0 0 0 3 3h11a2 2 0 0 0 2-2v-9a3 3 0 0 0-3-3H33zm10.342 2.063a1 1 0 0 1 .658.937v1h-2.83l2.172-1.938zm-3.293 2.937H44v6a1 1 0 0 1-1 1H33a1 1 0 0 1-.586-.19l7.635-6.81z"/></g><path d="M31.795 54.035c-.138-.287.523-.799.523-.799l11.136-10.014s1.176-1.181 1.218-.713c.113 1.255.11.835.113 1.255 0 0 .838 9.455.063 10.271-1.034 1.09-12.408.062-12.408.062s-.552.133-.646-.062z" fill="maroon"/><path d="M53.399 49.104a3 3 0 0 0-3 3v8a3 3 0 0 0 3 3h11a2 2 0 0 0 2-2v-9a3 3 0 0 0-3-3zm10.342 2.063a1 1 0 0 1 .658.937v1h-2.83zm-3.293 2.937h3.951v6a1 1 0 0 1-1 1h-10a1 1 0 0 1-.586-.19z" fill="#666"/><path d="M-7.377 26.5a3 3 0 0 1 3 3v9a2 2 0 0 1-2 2h.09a2 2 0 0 0 2-2v-9a3 3 0 0 0-3-3zm.342 2.063l-.815.726a.69.689 0 0 1 .254.533v.678h1.22v-1a1 1 0 0 0-.66-.938zm-.49 2.937v.242h.002v4.988a.847.831 0 0 1-.846.83h-8.467a.847.831 0 0 1-.205-.023l-.848.762a1 1 0 0 1-.031-.026l-.043.038a1 1 0 0 0 .586.189h10a1 1 0 0 0 1-1v-6z" fill="#ff0"/></svg>