<?xml version="1.0" encoding="UTF-8"?>
<!-- This Source Code Form is subject to the terms of the Mozilla Public
   - License, v. 2.0. If a copy of the MPL was not distributed with this
   - file, You can obtain one at http://mozilla.org/MPL/2.0/. -->
<svg width="16" height="16" version="1.1" viewBox="0 0 16 16" xmlns="http://www.w3.org/2000/svg" xmlns:cc="http://creativecommons.org/ns#" xmlns:dc="http://purl.org/dc/elements/1.1/" xmlns:rdf="http://www.w3.org/1999/02/22-rdf-syntax-ns#">
 <metadata>
  <rdf:RDF>
   <cc:Work rdf:about="">
    <dc:format>image/svg+xml</dc:format>
    <dc:type rdf:resource="http://purl.org/dc/dcmitype/StillImage"/>
    <dc:title/>
   </cc:Work>
  </rdf:RDF>
 </metadata>
 <defs>
  <clipPath id="clipPath1452">
   <path d="m-24.176 30.085a3 3 0 0 1 3 3v9a2 2 0 0 1-2 2h0.08984a2 2 0 0 0 2-2v-9a3 3 0 0 0-3-3zm0.3418 2.0625-0.81445 0.72656a0.68973 0.68858 0 0 1 0.25391 0.5332v0.67774h1.2188v-1a1 1 0 0 0-0.6582-0.9375zm-0.49023 2.9375v0.24219h2e-3v4.9883a0.84679 0.83142 0 0 1-0.8457 0.83008h-8.4668a0.84679 0.83142 0 0 1-0.20508-0.02344l-0.84766 0.76172a1 1 0 0 1-0.03125-0.02539l-0.04297 0.03711a1 1 0 0 0 0.58594 0.18945h10a1 1 0 0 0 1-1v-6z" fill="#4d4d4d"/>
  </clipPath>
 </defs>
 <rect x="-35.458" y="30.847" width="12.678" height="11.864" clip-path="url(#clipPath1452)" fill="#fca"/>
 <g transform="translate(-23.67 -4.3053)" fill="#fff">
  <path d="m4.3799 43.017 13.421-12.068 0.0741 12.001z" fill="#800000"/>
 </g>
 <path d="m63.399 49.104a3 3 0 0 1 3 3v9a2 2 0 0 1-2 2h0.08984a2 2 0 0 0 2-2v-9a3 3 0 0 0-3-3zm0.3418 2.0625-2.1719 1.9375h2.8301v-1a1 1 0 0 0-0.6582-0.9375zm-3.293 2.9375-7.5605 6.7988a1 1 0 0 1-0.03125-0.02539l-0.04297 0.03711a1 1 0 0 0 0.58594 0.18945h10a1 1 0 0 0 1-1v-6z"/>
 <g transform="translate(-.67797 39.186)" fill="#666">
  <path d="m13 1h-10a3 3 0 0 0-3 3v8a3 3 0 0 0 3 3h11a2 2 0 0 0 2-2v-9a3 3 0 0 0-3-3zm1 11a1 1 0 0 1-1 1h-10a1 1 0 0 1-1-1v-6h12zm0-7h-12v-1a1 1 0 0 1 1-1h10a1 1 0 0 1 1 1z"/>
  <path d="m1.363 13.729 13.421-12.068 0.074097 12.001z"/>
 </g>
 <path d="m31.536 25.329h16.983v14.949h-16.983z"/>
 <g transform="translate(31.909 24.448)" fill="#b3b3b3">
  <path d="m13 1h-10a3 3 0 0 0-3 3v8a3 3 0 0 0 3 3h11a2 2 0 0 0 2-2v-9a3 3 0 0 0-3-3zm1 11a1 1 0 0 1-1 1h-10a1 1 0 0 1-1-1v-6h12zm0-7h-12v-1a1 1 0 0 1 1-1h10a1 1 0 0 1 1 1z"/>
  <path d="m1.363 13.729 13.421-12.068 0.074097 12.001z"/>
 </g>
 <path d="m3.0391 1a3 3 0 0 0-3 3v8a3 3 0 0 0 3 3h11a2 2 0 0 0 1.873-1.3047 2 2 0 0 1-1.8613 1.2715h-0.08984a2 2 0 0 0 2-2v-9a3 3 0 0 0-1.8066-2.752 3 3 0 0 0-0.02539-0.01172 3 3 0 0 0-2e-3 0 3 3 0 0 0-1.0879-0.20312zm0 2h10a1 1 0 0 1 0.25781 0.03516l0.0059-0.0059a1 1 0 0 1 0.6582 0.9375v1h-1.2188v-0.67774a0.68973 0.68858 0 0 0-0.25-0.5293l-1.3809 1.2402h-9.0723v-1a1 1 0 0 1 1-1zm9.7734 2.9668h1.1484v6a1 1 0 0 1-1 1h-10a1 1 0 0 1-0.58594-0.18945l0.01758-0.01563a1 1 0 0 1-0.35352-0.76171v-6h7.959l-6.6816 6.0078a0.84679 0.83142 0 0 0 0.18555 0.01953h8.4668a0.84679 0.83142 0 0 0 0.8457-0.83008v-4.9883h-2e-3z" fill="#0c0c0d" fill-opacity=".8"/>
 <g transform="translate(-3.6949 9.8983)" fill="#fff">
  <path d="m4.3799 43.017 13.421-12.068 0.0741 12.001z" fill="#800000"/>
 </g>
 <g fill="#666">
  <rect x="14.106" y="40.847" width="7.661" height="12.271"/>
  <rect x=".71186" y="52.576" width="21.017" height="5.2881"/>
  <path d="m33 41.475a3 3 0 0 0-3 3v8a3 3 0 0 0 3 3h11a2 2 0 0 0 2-2v-9a3 3 0 0 0-3-3h-10zm10.342 2.0625a1 1 0 0 1 0.6582 0.9375v1h-2.8301l2.1719-1.9375zm-3.293 2.9375h3.9512v6a1 1 0 0 1-1 1h-10a1 1 0 0 1-0.58594-0.18945l7.6348-6.8105z"/>
 </g>
 <g transform="translate(26.974 11.085)" fill="#fff">
  <path d="m4.8206 42.95c-0.13772-0.28705 0.52329-0.79903 0.52329-0.79903l11.136-10.014s1.1766-1.1813 1.2185-0.7126c0.11237 1.2548 0.10978 0.83487 0.11237 1.2548 0 0 0.83794 9.4549 0.06342 10.271-1.0339 1.0899-12.408 0.062-12.408 0.062s-0.55224 0.13262-0.64579-0.06237z" fill="#800000"/>
 </g>
 <path d="m53.399 49.104a3 3 0 0 0-3 3v8a3 3 0 0 0 3 3h11a2 2 0 0 0 2-2v-9a3 3 0 0 0-3-3zm10.342 2.0625a1 1 0 0 1 0.6582 0.9375v1h-2.8301zm-3.293 2.9375h3.9512v6a1 1 0 0 1-1 1h-10a1 1 0 0 1-0.58594-0.18945z" fill="#666"/>
 <path d="m-7.377 26.5a3 3 0 0 1 3 3v9a2 2 0 0 1-2 2h0.08984a2 2 0 0 0 2-2v-9a3 3 0 0 0-3-3zm0.3418 2.0625-0.81445 0.72656a0.68973 0.68858 0 0 1 0.25391 0.5332v0.67774h1.2188v-1a1 1 0 0 0-0.6582-0.9375zm-0.49023 2.9375v0.24219h2e-3v4.9883a0.84679 0.83142 0 0 1-0.84575 0.83008h-8.4668a0.84679 0.83142 0 0 1-0.20508-0.02344l-0.84766 0.76172a1 1 0 0 1-0.03125-0.02539l-0.04297 0.03711a1 1 0 0 0 0.58594 0.18945h10a1 1 0 0 0 1-1v-6z" fill="#ff0"/>
</svg>
